
<svg xmlns="http://www.w3.org/2000/svg" viewBox="0 0 1000 618">
  <path d="M55,266.2h889.1v334.3c0,15-12.2,27.2-27.2,27.2H82.2c-15,0-27.2-12.2-27.2-27.2V266.2z" fill="#26A6D1"/>
  <path d="M944.1,351.5V82.2c0-15-12.2-27.2-27.2-27.2H82.2C67.2,55,55,67.2,55,82.2v269.3H944.1z" fill="#DCDEE0"/>
  <g fill="#FFFFFF">
    <polygon points="400.3,320 400.3,254.8 370.6,320 341.3,320 341.3,223.7 368.5,223.7 368.5,288.2 398.1,223.7 427.4,223.7 
      427.4,320"/>
    <path d="M500.9,254.8h-59.2v-17.8h59.2V254.8z M500.9,287.2h-59.2v-17.8h59.2V287.2z M500.9,320h-59.2c0,0-29.3-26.5-29.3-48.4
      v-47.9H500.9V320z"/>
    <polygon points="554.9,254.8 554.9,320 527.8,320 527.8,254.8 506.6,254.8 506.6,223.7 576.1,223.7 576.1,254.8"/>
    <path d="M580.1,223.7h43.9c0,0,13.9,17.5,13.9,48.1c0,30.6-13.9,48.1-13.9,48.1h-43.9V223.7z M608.6,320h-55.6V197.5h55.6
      c0,0,41.6,24.3,41.6,61.3C650.1,295.7,608.6,320,608.6,320z"/>
    <path d="M695.1,223.7h41.3c0,0,17.5,15.5,17.5,48.1s-17.5,48.1-17.5,48.1h-41.3V223.7z M723.2,254.8H722v33.4h1.2
      c14.5,0,14.5-33.4,0-33.4z"/>
    <rect x="759.6" y="223.7" width="27.1" height="96.3"/>
    <path d="M834.5,258.8c-4.6-8.1-20.2-4-20.2-4v-31.1c0,0,32.8-5.8,41.6,14.5c8.4,19.4,1.2,36.6-1.2,41.6
      c-2.3,5.2-9.5,14.9-9.5,14.9s9.8,8.7,9.8,26.8h-28c0,0,0-13.6-6.9-20.5C813.5,293.7,842.5,274.3,834.5,258.8z"/>
    <rect x="857.4" y="223.7" width="28.9" height="96.3"/>
    <rect x="889.2" y="223.7" width="27.1" height="96.3"/>
  </g>
</svg>
