
<svg xmlns="http://www.w3.org/2000/svg" viewBox="0 0 780 500">
  <path d="M40,0h700c22.1,0,40,17.9,40,40v420c0,22.1-17.9,40-40,40H40c-22.1,0-40-17.9-40-40V40C0,17.9,17.9,0,40,0z" fill="#046"/>
  <path d="M415.5,161.1L464,118h-39l-53,54.9V118h-56.9c-16.2,0-21.9,4-27.8,19.2L265.1,225c45-20.2,189-82.1,189-82.1
  s-8.3,28.6-10.4,34.8c-2.1,6.2-6.2,22.7-45.8,22.7H373v13.9h-45.8l-47.9,45.2h42.7l56.9-55.6v55.6h56.3v-80.4
  c16.9,0,22.8,3.5,22.8,17.9c0,6.9,0,13.9,0,23.8c0,25.9-1,38.7,25.9,38.7h32l27.2-26c-10.4-3.5-15.2-9-15.2-22.4v-46.5
  c0-11.1-7.3-20-20.7-25.2C485.5,144.4,446.9,159,415.5,161.1z M550.9,214.8c0,18.6-12.4,37.2-38.9,37.2h-29.3l23.8-23.1
  c5.5,4.1,10.4,5.5,19.2,5.5c5.5,0,12.4-3.5,12.4-11.1c0-5.5-3.5-9.7-9-11.1c-10.4-2.8-25.9,1.4-35.5,9.7l17.2-58.2h45.1L550.9,214.8
  L550.9,214.8L550.9,214.8z" fill="#FFFFFF"/>
  <path fill="#FFFFFF" d="M415.5,292.3v41h-69.2v-41H415.5z M156.7,292.3v41h69.2v-41H156.7z M225.8,252.9v-41h-69.2v41H225.8z
   M486.4,252.9h68.5v-41h-68.5V252.9z M623.3,292.3v41h-68.5v-41H623.3z M554.9,252.9v-41h-69.2v41H554.9z M346.3,292.3v41h69.2v-41
  H346.3z M486.4,292.3v41h69.2v-41H486.4z M416.2,252.9v-41h-69.2v41H416.2z M346.3,252.9h-69.2v-41h69.2V252.9z M285.3,333.3h69.2
  v-41h-69.2V333.3z M415.5,333.3h69.2v-41h-69.2V333.3z"/>
</svg>
