
<svg xmlns="http://www.w3.org/2000/svg" viewBox="0 0 1000 618">
  <path d="M399,304.2c0,103,83.5,186.5,186.5,186.5c103,0,186.5-83.5,186.5-186.5S688.5,117.7,585.5,117.7
  C482.5,117.7,399,201.2,399,304.2z" fill="#FFB600"/>
  <path d="M414.5,304.2c0-94.7,70.1-173.1,161.4-185.8c-103.9-14.5-199.9,57.7-214.4,161.6c-14.5,103.9,57.7,199.9,161.6,214.4
  c9.8,1.4,19.6,2,29.5,2c0.3,0,0.5,0,0.8,0C484.6,477.3,414.5,398.9,414.5,304.2z" fill="#F7981D"/>
  <path d="M628.3,118.9c94.3,19.3,155,110.6,135.7,204.9c-14.7,72.2-73.5,127.8-146.3,138c97.3-18.3,161.2-111.6,142.9-208.9
  c-10-53.3-43.8-98.9-91.4-123.6L628.3,118.9z" fill="#FF8500"/>
  <path d="M304.3,443.9v-7.2c0-2.7-1.5-4.5-4.2-4.5c-1.4,0-2.8,0.4-3.9,2c-0.8-1.2-1.9-2-3.7-2c-1.2,0-2.3,0.3-3.2,1.6v-1.3h-2.4
  v11.4h2.4v-6.3c0-1.9,1-2.8,2.6-2.8c1.5,0,2.3,1,2.3,2.8v6.3h2.4v-6.3c0-1.9,1.1-2.8,2.6-2.8c1.5,0,2.3,1,2.3,2.8v6.3H304.3z
   M240.1,438.2c0,3.5,2.5,6.1,6.2,6.1c1.7,0,2.9-0.4,4.1-1.4l-1.2-1.9c-0.9,0.7-1.8,1-3,1c-2,0-3.5-1.5-3.5-3.7c0-2.3,1.4-3.7,3.5-3.7
  c1.1,0,2,0.3,3,1l1.2-1.9c-1.2-0.9-2.4-1.4-4.1-1.4C242.5,432.1,240.1,434.7,240.1,438.2z M506.5,432.5h-3.9v-3.3h-2.5v3.3h-2.2v2.2
  h2.2v5.1c0,2.5,1,4,3.8,4c1,0,2.2-0.3,3-0.8l-0.7-2c-0.7,0.4-1.5,0.5-2.1,0.5c-1.2,0-1.6-0.7-1.6-1.8v-5h3.9V432.5z M390.2,434.3
  c-1.6,0-2.7,0.8-3.3,2v-1.8h-2.4v11.4h2.4v-6.4c0-1.8,0.8-2.9,2.4-2.9c0.5,0,1.1,0.1,1.6,0.3l0.7-2.3
  C391.2,434.4,390.7,434.3,390.2,434.3z M344.5,438.2c0,3.4,2.4,6.1,6.3,6.1c1.8,0,3-0.4,4.3-1.4l-1.2-1.8c-1,0.7-2,1.1-3.1,1.1
  c-2.1,0-3.7-1.5-3.7-3.9c0-2.4,1.6-3.9,3.7-3.9c1.1,0,2.1,0.3,3.1,1.1l1.2-1.8c-1.3-1-2.5-1.4-4.3-1.4
  C347,432.1,344.5,434.8,344.5,438.2z M368.8,438.2c0-3.4-2.3-6.1-6-6.1s-6,2.7-6,6.1c0,3.4,2.3,6.1,6,6.1S368.8,441.6,368.8,438.2z
   M359.3,438.2c0-2.2,1.3-3.8,3.4-3.8c2.1,0,3.4,1.7,3.4,3.8c0,2.2-1.3,3.9-3.4,3.9C360.6,442.1,359.3,440.4,359.3,438.2z
   M315.2,443.9v-6.8c0-2.7-1.7-4.5-4.5-4.5c-1.4,0-2.9,0.4-4.1,2c-0.8-1.2-2-2-3.9-2c-1.2,0-2.5,0.4-3.4,1.7v-1.4h-2.4v11.4h2.4v-6.3
  c0-1.9,1.1-2.9,2.7-2.9c1.6,0,2.4,1.1,2.4,2.9v6.3h2.4v-6.3c0-1.9,1.1-2.9,2.7-2.9c1.6,0,2.4,1,2.4,2.9v6.4H315.2z M649.3,432.5h-3.9
  v-3.3H643v3.3h-2.2v2.2h2.2v5.1c0,2.5,1,4,3.9,4c1,0,2.2-0.3,3-0.8l-0.7-2c-0.7,0.4-1.5,0.5-2.1,0.5c-1.2,0-1.6-0.7-1.6-1.8v-5h3.9
  V432.5z M426.6,432.1c-3.5,0-6,2.4-6,6.1c0,3.7,2.5,6.1,6.1,6.1c1.7,0,3.4-0.4,4.9-1.6l-1.2-1.7c-1,0.8-2.3,1.2-3.4,1.2
  c-1.7,0-3.2-0.8-3.6-2.9h9c0-0.3,0.1-0.6,0.1-1C432.7,434.3,430.1,432.1,426.6,432.1z M423.4,437.3c0.3-1.7,1.4-3,3.2-3
  c1.7,0,2.8,1.2,3.1,3H423.4z M403.2,438.2v-5.7h-2.4v1.3c-0.8-1-1.9-1.7-3.5-1.7c-3.1,0-5.6,2.4-5.6,6.1c0,3.7,2.5,6.1,5.6,6.1
  c1.6,0,2.7-0.7,3.5-1.7v1.3h2.4V438.2z M394.3,438.2c0-2.1,1.4-3.8,3.6-3.8c2.1,0,3.6,1.6,3.6,3.8c0,2.2-1.5,3.8-3.6,3.8
  C395.7,442,394.3,440.4,394.3,438.2z M559.3,432.1c-3.5,0-6,2.4-6,6.1c0,3.7,2.5,6.1,6.1,6.1c1.7,0,3.4-0.4,4.9-1.6l-1.2-1.7
  c-1,0.8-2.3,1.2-3.4,1.2c-1.7,0-3.2-0.8-3.6-2.9h9c0-0.3,0.1-0.6,0.1-1C565.4,434.3,562.8,432.1,559.3,432.1z M556.1,437.3
  c0.3-1.7,1.4-3,3.2-3c1.7,0,2.8,1.2,3.1,3H556.1z M460.8,438.2v-5.7h-2.4v1.3c-0.8-1-1.9-1.7-3.5-1.7c-3.1,0-5.6,2.4-5.6,6.1
  c0,3.7,2.5,6.1,5.6,6.1c1.6,0,2.7-0.7,3.5-1.7v1.3h2.4V438.2z M452,438.2c0-2.1,1.4-3.8,3.6-3.8c2.1,0,3.6,1.6,3.6,3.8
  c0,2.2-1.5,3.8-3.6,3.8C453.3,442,452,440.4,452,438.2z M485.2,432.5h-2.4v1.3c-0.8-1-1.9-1.7-3.5-1.7c-3.1,0-5.5,2.4-5.5,6.1
  c0,3.7,2.4,6.1,5.5,6.1c1.6,0,2.7-0.7,3.5-1.7v1.3h2.4V432.5z M476.4,438.2c0-2.1,1.4-3.8,3.6-3.8c2.1,0,3.6,1.7,3.6,3.8
  c0,2.2-1.5,3.8-3.6,3.8C477.8,442,476.4,440.4,476.4,438.2z M260.1,438.2v-10h-2.5v6c-0.8-1-1.9-1.7-3.5-1.7c-3.1,0-5.6,2.4-5.6,6.1
  c0,3.7,2.5,6.1,5.6,6.1c1.6,0,2.7-0.7,3.5-1.7v1.3h2.5V438.2z M251.2,438.2c0-2.1,1.4-3.8,3.6-3.8c2.1,0,3.6,1.6,3.6,3.8
  c0,2.2-1.5,3.8-3.6,3.8C252.6,442,251.2,440.4,251.2,438.2z M335.9,432.5h-2.4v1.3c-0.8-1-1.9-1.7-3.5-1.7c-3.1,0-5.6,2.4-5.6,6.1
  c0,3.7,2.5,6.1,5.6,6.1c1.6,0,2.7-0.7,3.5-1.7v1.3h2.4V432.5z M327,438.2c0-2.1,1.4-3.8,3.6-3.8c2.1,0,3.6,1.7,3.6,3.8
  c0,2.2-1.5,3.8-3.6,3.8C328.4,442,327,440.4,327,438.2z M276.1,434.3c-1.6,0-2.7,0.8-3.3,2v-1.8h-2.4v11.4h2.4v-6.4
  c0-1.8,0.8-2.9,2.4-2.9c0.5,0,1.1,0.1,1.6,0.3l0.7-2.3C277.1,434.4,276.6,434.3,276.1,434.3z M375.6,433.4c-1.5-0.9-3.5-1.3-5.7-1.3
  c-3.5,0-5.8,1.7-5.8,4.5c0,2.3,1.7,3.7,4.8,4.2l1.4,0.2c1.7,0.2,2.4,0.7,2.4,1.5c0,1.1-1.1,1.7-3.1,1.7c-1.7,0-3.3-0.4-4.7-1.4
  l-1.2,1.9c1.7,1.2,3.8,1.7,5.9,1.7c3.9,0,6.1-1.8,6.1-4.6c0-2.5-1.8-3.8-4.9-4.2l-1.4-0.2c-1.3-0.2-2.3-0.5-2.3-1.4
  c0-1,1-1.6,2.6-1.6c1.8,0,3.5,0.5,4.6,1.1L375.6,433.4z M536.6,433.4c-1.5-0.9-3.5-1.3-5.7-1.3c-3.5,0-5.8,1.7-5.8,4.5
  c0,2.3,1.7,3.7,4.8,4.2l1.4,0.2c1.7,0.2,2.4,0.7,2.4,1.5c0,1.1-1.1,1.7-3.1,1.7c-1.7,0-3.3-0.4-4.7-1.4l-1.2,1.9
  c1.7,1.2,3.8,1.7,5.9,1.7c3.9,0,6.1-1.8,6.1-4.6c0-2.5-1.8-3.8-4.9-4.2l-1.4-0.2c-1.3-0.2-2.3-0.5-2.3-1.4c0-1,1-1.6,2.6-1.6
  c1.8,0,3.5,0.5,4.6,1.1L536.6,433.4z M589.2,432.1c-1.5,0-2.5,0.7-3.1,1.7v-1.3h-2.4v11.4h2.4v-6.4c0-1.9,0.8-3,2.5-3
  c0.5,0,1.1,0.1,1.6,0.3l0.7-2.2C590.2,432.2,589.7,432.1,589.2,432.1z M439.1,432.5h-2.4v11.4h2.4V432.5z M439.3,428.5h-2.9v2.9h2.9
  V428.5z M628.6,432.1c-3.5,0-6,2.4-6,6.1c0,3.7,2.5,6.1,6.1,6.1c1.7,0,3.4-0.4,4.9-1.6l-1.2-1.7c-1,0.8-2.3,1.2-3.4,1.2
  c-1.7,0-3.2-0.8-3.6-2.9h9c0-0.3,0.1-0.6,0.1-1C634.7,434.3,632.1,432.1,628.6,432.1z M625.4,437.3c0.3-1.7,1.4-3,3.2-3
  c1.7,0,2.8,1.2,3.1,3H625.4z M615.2,430.1l-2.3,8.5c-0.3,1.1-0.5,2.5-0.5,2.5s-0.2-1.4-0.5-2.5l-2.5-8.5h-2.5l-2.5,8.5
  c-0.3,1.1-0.5,2.5-0.5,2.5s-0.2-1.4-0.5-2.5l-2.3-8.5h-2.5l4,13.8h2.7l2.4-8c0.3-1.1,0.5-2.5,0.5-2.5s0.2,1.4,0.5,2.5l2.4,8h2.7
  l4.1-13.8H615.2z M514.4,432.5H512v11.4h2.4V432.5z M514.6,428.5h-2.9v2.9h2.9V428.5z M580.3,438.2v-10h-2.5v6
  c-0.8-1-1.9-1.7-3.5-1.7c-3.1,0-5.6,2.4-5.6,6.1c0,3.7,2.5,6.1,5.6,6.1c1.6,0,2.7-0.7,3.5-1.7v1.3h2.5V438.2z M571.4,438.2
  c0-2.1,1.4-3.8,3.6-3.8c2.1,0,3.6,1.6,3.6,3.8c0,2.2-1.5,3.8-3.6,3.8C572.8,442,571.4,440.4,571.4,438.2z M602.8,438.2v-5.7h-2.4v1.3
  c-0.8-1-1.9-1.7-3.5-1.7c-3.1,0-5.6,2.4-5.6,6.1c0,3.7,2.5,6.1,5.6,6.1c1.6,0,2.7-0.7,3.5-1.7v1.3h2.4V438.2z M593.9,438.2
  c0-2.1,1.4-3.8,3.6-3.8c2.1,0,3.6,1.6,3.6,3.8c0,2.2-1.5,3.8-3.6,3.8C595.3,442,593.9,440.4,593.9,438.2z" fill="#0066B5"/>
</svg>
