
<svg xmlns="http://www.w3.org/2000/svg" viewBox="0 0 1000 324">
  <path d="M651.3,0.2H348.7c-92.4,0-167.2,74.8-167.2,167.2v156c0,92.4,74.8,167.2,167.2,167.2h302.5c92.4,0,167.2-74.8,167.2-167.2v-156
  C818.5,75.1,743.7,0.2,651.3,0.2z" fill="#fff"/>
  <path d="M364.8,188.9l44.8-104.8h71.9l-44.8,104.8H364.8z M341.2,188.9l-36.6-71.3c-2.2-4.2-5.7-7.1-11-7.1h-63.9l-1,3.4
  c12.4,2.7,26.5,7.1,35.1,11.7c5.2,3.2,6.7,6,8.4,11l29.7,62.2H341.2z M381,237.3l-12.9-12.9c-11,5.4-22.7,9.5-34.6,9.5
  c-19.1,0-29.7-13.7-29.7-26.2c0-15.1,8.7-23.5,33.8-23.5c4.5,0,9,0,13.4,0.5v-4.2c0-5.5-3.5-11.5-17.6-11.5c-12.7,0-23,3.8-30,7.2
  l-5.5-16.4c10.9-5.2,24.8-8.7,39.6-8.7c28.2,0,41.8,13.7,41.8,38.9C379.3,207.2,380.3,226.3,381,237.3z M424.6,236.1h-43.1l0.5-16.9
  c-7.4,11-17.9,19.1-31.3,19.1c-16.1,0-25.8-9.7-25.8-27.2c0-24.8,17.4-39.1,53.3-39.1c3.5,0,8,0.2,12.9,0.7
  c1-5.9,1.8-10.5,1.8-14.6c0-7.5-5.2-10.2-15.8-10.2c-13,0-23.5,4-31,7.4l-5.4-16.9c11.2-5.2,25.5-8.7,40.6-8.7
  c26,0,38.9,12.5,38.9,35.8C420.1,177.1,422.8,208.4,424.6,236.1z M555.2,188.9L510.5,84.2h-27.7l-18.6,74c-2,8-3.7,21.9-3.7,21.9
  c-1.2-8.2-2.2-13.7-3.5-21.9l-15.9-74h-29.5l-0.5,104.8h20.9l0.2-77.5c0,0,0.5-10.5,0.7-16.9c1.2,6.2,3.2,16.6,3.2,16.6l21.6,77.7
  h22.4l26.5-80c0,0,1.5-9.2,2-14.4c0,7.5,0.5,15.6,0.5,15.6l4.7,78.9H555.2z M751.5,188.9h-23.7l1-10.9c-7.7,8.2-18.1,13.4-32.5,13.4
  c-16.9,0-28.5-12.7-28.5-31.3c0-28.5,20.1-44.8,69.2-44.8h5.9c0.5-2.7,0.7-5.2,0.7-7.7c0-7.9-5-10.9-18.4-10.9
  c-14.1,0-24.8,3.5-32.5,6.7l-5.9-18.9c12.4-5,28-8.7,44.1-8.7c28.7,0,41.6,13.7,41.6,36.1C772.4,129.8,762.7,168.2,751.5,188.9z
   M570.6,188.9c-9.7-23.5-29.5-71.6-37.1-89.7h-1.5c0.2,4,0.7,14.9,0.7,14.9l1.2,74.8h-21.9l-3.5-104.8h31l34.6,83
  c-0.7-9.5-1.5-24.5-2-36.6c-0.5-15.1-0.7-46.3-0.7-46.3h22.4l3.5,104.8H570.6z M717.7,133.6h-5.4c-27.5,0-38.1,8.4-38.1,24
  c0,9.5,5.7,15.4,14.9,15.4C705.3,173,717.7,155.6,717.7,133.6z" fill="#1434CB"/>
</svg>
